<?xml version="1.0" encoding="utf-8"?>
<!-- Generator: Adobe Illustrator 16.0.0, SVG Export Plug-In . SVG Version: 6.00 Build 0)  -->
<!DOCTYPE svg PUBLIC "-//W3C//DTD SVG 1.1//EN" "http://www.w3.org/Graphics/SVG/1.1/DTD/svg11.dtd">
<svg version="1.1" id="Layer_1" xmlns="http://www.w3.org/2000/svg" xmlns:xlink="http://www.w3.org/1999/xlink" x="0px" y="0px"
	 width="752.631px" height="157.895px" viewBox="0 0 752.631 157.895" enable-background="new 0 0 752.631 157.895"
	 xml:space="preserve">
<linearGradient id="SVGID_1_" gradientUnits="userSpaceOnUse" x1="8.1162" y1="51.9365" x2="221.2026" y2="51.9365">
	<stop  offset="0" style="stop-color:#67B6E4"/>
	<stop  offset="0.2203" style="stop-color:#66B2E1"/>
	<stop  offset="0.4157" style="stop-color:#64A8D7"/>
	<stop  offset="0.6016" style="stop-color:#6096C6"/>
	<stop  offset="0.7817" style="stop-color:#5B7CAF"/>
	<stop  offset="0.9561" style="stop-color:#545B92"/>
	<stop  offset="1" style="stop-color:#525289"/>
</linearGradient>
<path fill="url(#SVGID_1_)" d="M8.668,95.512c0,0,2.168,3.288,15.248-7.204c0,0,21.507-17.626,72.601-35.812
	c0,0,37.211-13.708,79.457,10.771c0,0,20.283,11.47,31.054,26.019c0,0,5.526,7.974,12.241,5.456c3.497-2.099,1.469-5.386,0-8.603
	c-1.469-3.217-21.403-43.155-49.521-65.606c0,0-26.229-22.662-60.011-7.344c-33.783,15.317-62.53,41.336-78.267,54.136
	C31.469,67.324,3.912,89.707,8.668,95.512z"/>
<linearGradient id="SVGID_2_" gradientUnits="userSpaceOnUse" x1="90.5127" y1="123.5557" x2="197.1636" y2="123.5557">
	<stop  offset="0" style="stop-color:#67B6E4"/>
	<stop  offset="0.2203" style="stop-color:#66B2E1"/>
	<stop  offset="0.4157" style="stop-color:#64A8D7"/>
	<stop  offset="0.6016" style="stop-color:#6096C6"/>
	<stop  offset="0.7817" style="stop-color:#5B7CAF"/>
	<stop  offset="0.9561" style="stop-color:#545B92"/>
	<stop  offset="1" style="stop-color:#525289"/>
</linearGradient>
<path fill="url(#SVGID_2_)" d="M96.097,104.955c0,0,33.433,24.339,78.057,15.807c0,0,20.563-4.626,22.941,1.814
	c0,0,2.798,9.937-27.558,19.589c0,0-23.781,7.694-62.669-18.605c0,0-18.046-14.128-16.227-18.604
	C90.642,104.955,91.9,102.577,96.097,104.955z"/>
<linearGradient id="SVGID_3_" gradientUnits="userSpaceOnUse" x1="28.0044" y1="102.9082" x2="169.0073" y2="102.9082">
	<stop  offset="0" style="stop-color:#B2CF5F"/>
	<stop  offset="0.2277" style="stop-color:#AECC5E"/>
	<stop  offset="0.4295" style="stop-color:#A4C35D"/>
	<stop  offset="0.6216" style="stop-color:#92B359"/>
	<stop  offset="0.8076" style="stop-color:#789D55"/>
	<stop  offset="0.9879" style="stop-color:#57804F"/>
	<stop  offset="1" style="stop-color:#557E4F"/>
</linearGradient>
<path fill="url(#SVGID_3_)" d="M124.774,73.2c0,0,1.329-0.368,1.958,1.835c0,0,2.046,5.193,6.714,6.4c0,0,9.967,2.885,13.272-6.348
	c0,0,3.252-8.026-4.092-11.278c0,0-7.92-4.668-33.24,4.564c0,0-28.677,9.721-28.677,31.264c0,0-0.839,17.345,30.775,33.433
	c0,0,16.646,9.234,26.159,12.31c0,0,2.57,1.154,1.958,2.378c0,0-1.818,3.498-16.506-1.958c0,0-52.789-16.932-82.674-30.075
	c0,0-20.004-6.295-9.232-18.325c0,0,28.537-26.578,76.798-38.049c0,0,29.796-7.694,49.38,4.476c0,0,19.864,11.331,7.694,32.874
	c0,0-12.87,20.387-35.251,6.207c0,0-11.75-8.584-8.673-24.252C121.137,78.656,121.836,74.319,124.774,73.2z"/>
<text transform="matrix(1 0 0 1 233.3774 138.7813)" fill="#435085" font-family="'Auril-05'" font-size="154.4084">EGAZE</text>
</svg>
